# xmcd CD database file
#
# Track frame offsets:
#	150
#	13243
#	25020
#	37567
#	49689
#	63332
#	77641
#	89807
#	100989
#	112267
#	125830
#	137703
#	149716
#	161258
#	174724
#	186657
#	199638
#	212621
#	225880
#	236135
#	247461
#	262745
#
# Disc length: 3666 seconds
#
# Revision: 0
# Processed by: cddbd v1.5PL3 Copyright (c) Steve Scherf et al.
# Submitted via: CDex 1.40Release
#
DISCID=3f0e5016
DTITLE=Eddy Arnold - Eddy's Song, CD 2, A Prison Without Walls
DYEAR=2003
DGENRE=Country
TTITLE0=Each Minute Seems A Million Years
TTITLE1=All Alone In This World Without You
TTITLE2=Chained To A Memory
TTITLE3=I Couldn't Believe It Was True
TTITLE4=Molly Darling
TTITLE5=My Daddy Is Only A Picture
TTITLE6=There's Not A Thing (I Wouldn't Do For You)
TTITLE7=Show Me The Way Back To Your Heart
TTITLE8=C-H-R-I-S-T-M-A-S (1)
TTITLE9=Will Santa Come To Shanty Town
TTITLE10=There's No Wings On My Angel
TTITLE11=Mama And Daddy Broke My Heart
TTITLE12=Little Angel With A Dirty Face
TTITLE13=Why Should I Cry
TTITLE14=Enclosed One Broken Heart
TTITLE15=A Prison Without Walls
TTITLE16=May The Good Lord Bless You and Keep You
TTITLE17=White Christmas
TTITLE18=Santa Claus Is Comin' To Town
TTITLE19=C-H-R-I-S-T-M-A-S (2)
TTITLE20=Jesus And The Atheist
TTITLE21=I'm Writing A Letter To The Lord
EXTD=YEAR: 2003 ID3G: 2
EXTT0=
EXTT1=
EXTT2=
EXTT3=
EXTT4=
EXTT5=
EXTT6=
EXTT7=
EXTT8=
EXTT9=
EXTT10=
EXTT11=
EXTT12=
EXTT13=
EXTT14=
EXTT15=
EXTT16=
EXTT17=
EXTT18=
EXTT19=
EXTT20=
EXTT21=
PLAYORDER=
